<?xml version="1.0" encoding="utf-8"?>
<svg version="1.1" xmlns:xlink="http://www.w3.org/1999/xlink" width="32px" height="24px" xmlns="http://www.w3.org/2000/svg">
  <g transform="matrix(1 0 0 1 -11 -15 )">
    <path d="M 30.473125 0.75  C 30.337 0.730874999999999  30.198625 0.730874999999999  30.0625 1  L 1.9375 1  C 1.1190625 0.636375  0.363625 1.207875  0.25 2.026875  C 0.230875 2.163  0.230875 2.301375  0.25 2.4375  L 0.25 21.5625  C 0.25 22.726875  0.7675 23.25  1.9375 23  L 30.0625 23  C 31.1875 23.25  31.75 22.6875  31.75 21.5625  L 31.75 2.4375  C 31.8630625 1.6190625  31.292125 0.863625  30.473125 0.75  Z M 30 21.32625  L 22.586875 13.288125  C 22.3849375 13.0524375  22.03 13.024875  21.79375 13.2268125  C 21.5580625 13.42875  21.5305 13.78425  21.733 14.0199375  C 21.7515625 14.041875  21.7718125 14.062125  21.79375 14.08125  L 29.831875 22  L 2.168125 22  L 10.20625 14.086875  C 10.4081875 13.8511875  10.380625 13.4956875  10.1449375 13.29375  C 9.934 13.11375  9.6240625 13.11375  9.413125 13.29375  L 2 21.331875  L 2 2.578125  L 14.374375 15.5769375  C 15.253 16.456125  16.67725 16.4566875  17.557 15.5791875  C 17.557 15.578625  17.558125 15.5780625  17.558125 15.5769375  L 30 2.510625  L 30 21.32625  Z M 15.173125 14.8125  L 2.26375 2  L 29.66875 2  L 16.765 14.8125  C 16.3268125 15.2518125  15.614125 15.252375  15.17425 14.813625  C 15.17425 14.8130625  15.1736875 14.8125  15.173125 14.8125  Z " fill-rule="nonzero" fill="#ffffff" stroke="none" transform="matrix(1 0 0 1 11 15 )" />
  </g>
</svg>