<?xml version="1.0" encoding="utf-8"?>
<svg version="1.1" xmlns:xlink="http://www.w3.org/1999/xlink" width="32px" height="32px" xmlns="http://www.w3.org/2000/svg">
  <g transform="matrix(1 0 0 1 -23 -328 )">
    <path d="M 31.7858407079646 16.0438584070797  C 31.7858407079646 7.31069026548673  24.7062654867257 0.231150442477876  15.9730973451327 0.231150442477876  C 7.23996460176991 0.231150442477876  0.160353982300886 7.31072566371681  0.160353982300886 16.0438938053097  C 0.160353982300886 24.7769911504425  7.23996460176991 31.8566017699115  15.9730973451327 31.8566017699115  C 24.7062654867257 31.8566017699115  31.7858407079646 24.7770265486726  31.7858407079646 16.0438584070797  Z M 17.2486017699115 10.8279292035398  C 16.8284955752212 10.5777699115044  16.848814159292 10.1565663716814  16.9510442477876 9.98145132743363  C 17.8726017699115 8.40254867256637  18.5605309734513 7.27153982300885  19.5293451327434 5.72021238938053  C 19.8985486725664 5.17614159292035  20.3332389380531 5.38258407079646  20.6199646017699 5.57830088495575  C 20.7868318584071 5.66205309734513  21.2545132743363 6.0175221238938  21.7555752212389 6.39217699115044  L 18.6244247787611 11.6492743362832  C 18.0995752212389 11.3478938053097  17.6709734513274 11.0793628318584  17.2486017699115 10.8279292035398  Z M 8.97819469026549 24.6359646017699  C 8.4541592920354 24.3368495575221  8.37925663716814 23.9708672566372  8.70856637168141 23.4514336283186  C 9.2775221238938 22.5538761061947  9.79695575221239 21.6251327433628  10.3472212389381 20.7155752212389  C 11.3734867256637 19.019185840708  11.088814159292 18.6923185840708  13.2444601769911 20.134796460177  C 13.2638938053097 20.1477522123894  13.2711504424779 20.1789380530973  13.330407079646 20.2826194690266  C 12.3223362831858 21.9748318584071  11.3196460176991 23.6578407079646  10.2821238938053 25.3993274336283  C 9.79635398230088 25.1144778761062  9.38973451327433 24.8709380530973  8.97819469026548 24.636  Z M 23.4256283185841 9.63384070796461  C 23.465203539823 10.0094867256637  23.3856283185841 11.1903008849558  23.2785840707965 11.7545486725664  C 22.4315398230089 16.2201061946903  20.208389380531 19.9537345132743  17.0927433628319 23.1848849557522  C 15.911185840708 24.4102300884956  14.5063008849558 25.3462654867257  12.792 25.6563185840708  C 12.207185840708 25.7620884955752  11.5871504424779 25.6730973451327  10.7927787610619 25.6730973451327  C 11.8874336283186 23.8307610619469  12.8326017699115 22.2282123893805  13.7983008849558 20.6381238938053  C 13.8732743362832 20.5146548672566  14.0930973451327 20.480389380531  14.2439646017699 20.4014867256637  C 14.652 20.1880707964602  15.2170973451327 20.0777345132743  15.4404247787611 19.7411327433628  C 16.6880707964602 17.8603539823009  17.8754690265487 15.938017699115  19.0257699115044 13.9957522123894  C 19.2370619469027 13.6390088495575  19.3842831858407 13.010017699115  19.2108318584071 12.707610619469  C 18.828 12.0401769911504  19.1388318584071 11.6184778761062  19.4444955752212 11.1250973451327  C 19.7531681415929 10.6268318584071  20.0466194690265 10.1190796460177  20.3471504424779 9.6157168141593  C 20.8997168141593 8.68994690265487  21.4526371681416 7.76435398230089  22.0649557522124 6.73886725663717  C 22.3214159292035 7.08980530973452  22.4950442477876 7.32598230088496  22.6506548672566 7.55830088495576  C 22.9846017699115 8.05670796460177  23.373203539823 8.78538053097346  23.4256283185841 9.63384070796461  Z " fill-rule="nonzero" fill="#1980ff" stroke="none" transform="matrix(1 0 0 1 23 328 )" />
  </g>
</svg>