<?xml version="1.0" encoding="utf-8"?>
<svg version="1.1" xmlns:xlink="http://www.w3.org/1999/xlink" width="31px" height="31px" xmlns="http://www.w3.org/2000/svg">
  <g transform="matrix(1 0 0 1 -152 -5908 )">
    <path d="M 13.6907360644308 0.970727772636674  C 13.6869508456093 0.663637884396355  13.7049306350114 0.357489989678245  13.7399439091104 0.0522840884823458  C 13.8828359196224 0.0381541856492047  14.0247816254291 0.0211983022494301  14.1686199406464 0.0146043475939655  C 18.5878629147597 0.0155463411161733  23.0080521935784 0.0146043475939655  27.428241472397 0.0146043475939655  C 28.5884110411899 0.0390961791714125  29.7523658288044 -0.0362633026053541  30.9096964834811 0.0588780431378144  C 30.9532264999285 0.39422773704442  30.9522801952231 0.732403411517653  30.9399782340532 1.06963709246868  C 30.9399782340532 10.8032561574601  30.9399782340532 20.5368752224516  30.9390319293478 30.2714362809653  C 30.9333541011156 30.4805588428958  30.914428007008 30.6896814048263  30.8983408270166 30.8988039667568  C 29.5224137853976 30.9873513578445  28.1417552202517 30.917643837201  26.763935569222 30.9402516817341  C 18.7203455735126 30.9393096882119  10.6767555778032 30.9402516817341  2.63316558209382 30.9402516817341  C 1.76445786255721 30.9138758631122  0.891018619493707 30.9920613254556  0.0260961187786029 30.9016299473235  C 0.0383980799485145 27.6932000106777  0.0194719858409602 24.4857120675541  0.0355591658323811 21.2772821309083  C 2.5243405409754 21.2650362151196  5.01312191611842 21.2678621956862  7.50190329126144 21.2772821309083  C 7.50947372890446 22.0007331559653  7.50474220537757 22.7251261745444  7.5037959006722 23.4495191931236  C 7.80282818757151 23.5135747526338  8.10753830270309 23.491908901623  8.40940950371854 23.4664750765233  C 13.4172540045767 23.4589391283457  18.4250985054348 23.4711850441344  23.4329430062929 23.4598811218679  C 23.4263188733553 18.6331063140661  23.4338893109983 13.8072734997864  23.428211482766 8.98049869198462  C 23.4036075604262 8.48501009930239  23.5247345627145 7.98481153900911  23.4111779980692 7.49497490746014  C 20.4918279819794 7.49968487507119  17.5724779658896 7.49403291393793  14.6531279497998 7.49685889450455  C 14.3427400064359 7.50816281677107  14.0323520630721 7.49685889450455  13.7248030338244 7.45446918600513  C 13.6623469232695 5.2954200331008  13.7115547679491 3.13166091258542  13.6907360644308 0.970727772636674  Z " fill-rule="nonzero" fill="#ffffff" stroke="none" transform="matrix(1 0 0 1 152 5908 )" />
  </g>
</svg>