<?xml version="1.0" encoding="utf-8"?>
<svg version="1.1" xmlns:xlink="http://www.w3.org/1999/xlink" width="31px" height="31px" xmlns="http://www.w3.org/2000/svg">
  <g transform="matrix(1 0 0 1 -140 -5896 )">
    <path d="M 0.0497609213732801 30.9662562267058  C 0.0497609213732801 20.6610739499713  0.0459670208572246 10.3558916732368  0.0516578716313076 0.0507093965022936  C 10.3577886234948 0.0459670208572246  20.6639193753584 0.040276170083142  30.9691016520929 0.0535548218893351  C 30.9691016520929 2.54899288632454  30.9709986023509 5.04443095075975  30.9681531769639 7.53892054006594  C 23.1603059149226 7.55030224161411  15.3515101777523 7.54176596545298  7.542714440582 7.54366291571101  C 7.54176596545298 8.94740610665138  7.54745681622706 10.3520977727208  7.53986901519495 11.7558409636611  C 12.4567640840023 11.7634287646932  17.3746076279386 11.7558409636611  22.291502696746 11.7596348641772  C 22.6566656214163 11.7529955382741  23.0218285460866 11.7539440134031  23.3860429956279 11.7776558916284  C 23.3775067194667 14.2721454809346  23.3813006199828 16.7666350702408  23.3841460453698 19.261124659547  C 18.1030365270212 19.2630216098051  12.8209785335436 19.2535368585149  7.53892054006594 19.2658670351921  C 7.55030224161411 20.6696102261325  7.53892054006594 22.0743018922018  7.54366291571101 23.4780450831422  C 15.3515101777523 23.4761481328842  23.1593574397936 23.4827874587873  30.9672047018349 23.4751996577552  C 30.9719470774799 25.9725346724484  30.9691016520929 28.4708181622706  30.9691016520929 30.9691016520929  C 20.6629709002294 30.9672047018349  10.3558916732368 30.9719470774799  0.0497609213732801 30.9662562267058  Z " fill-rule="nonzero" fill="#ffffff" stroke="none" transform="matrix(1 0 0 1 140 5896 )" />
  </g>
</svg>