<?xml version="1.0" encoding="utf-8"?>
<svg version="1.1" xmlns:xlink="http://www.w3.org/1999/xlink" width="13px" height="13px" xmlns="http://www.w3.org/2000/svg">
  <g transform="matrix(1 0 0 1 -28 -14 )">
    <path d="M 5.23327272727273 12.5652727272727  C 5.23331818181818 12.8044090909091  5.03768181818182 13  4.79863636363636 13  C 4.55954545454545 13  4.36395454545455 12.8044090909091  4.36395454545455 12.5653181818182  C 4.36395454545455 10.4050909090909  2.61227272727273 8.65336363636364  0.451999999999998 8.65336363636364  C 0.212909090909093 8.65336363636364  0.0173181818181831 8.45777272727273  0.0173181818181831 8.21868181818182  C 0.0173181818181831 7.97959090909091  0.212909090909093 7.784  0.451999999999998 7.784  C 3.09472727272727 7.784  5.23327272727273 9.9225  5.23327272727273 12.5652727272727  Z M 8.71054545454545 12.5652727272727  C 8.71059090909091 12.8044090909091  8.51495454545455 13  8.27590909090909 13  C 8.03681818181818 13  7.84122727272727 12.8044090909091  7.84122727272727 12.5653181818182  C 7.84122727272727 8.48386363636364  4.53345454545455 5.17609090909091  0.451999999999998 5.17609090909091  C 0.212909090909093 5.17609090909091  0.0173181818181831 4.9805  0.0173181818181831 4.74140909090909  C 0.0173181818181831 4.50231818181818  0.212909090909093 4.30672727272728  0.451999999999998 4.30672727272728  C 5.01159090909091 4.30672727272728  8.71054545454545 8.00568181818182  8.71054545454545 12.5652727272727  Z M 12.1878181818182 12.5652727272727  C 12.1878636363636 12.8044090909091  11.9922272727273 13  11.7531818181818 13  C 11.5140909090909 13  11.3185 12.8044090909091  11.3185 12.5653181818182  C 11.3185 6.56268181818182  6.45463636363637 1.69881818181818  0.452000000000005 1.69881818181818  C 0.212909090909093 1.69881818181818  0.0173181818181831 1.50322727272727  0.0173181818181831 1.26413636363637  C 0.0173181818181831 1.02504545454546  0.212909090909093 0.829454545454547  0.452000000000005 0.829454545454547  C 6.93272727272728 0.829454545454547  12.1878181818182 6.0845  12.1878181818182 12.5652727272727  Z " fill-rule="nonzero" fill="#ffffff" stroke="none" transform="matrix(1 0 0 1 28 14 )" />
  </g>
</svg>