<?xml version="1.0" encoding="utf-8"?>
<svg version="1.1" xmlns:xlink="http://www.w3.org/1999/xlink" width="14px" height="11px" xmlns="http://www.w3.org/2000/svg">
  <g transform="matrix(1 0 0 1 -138 -321 )">
    <path d="M 6.81571370967742 3.36903308823529  C 7.17219153225806 3.36903308823529  7.41034677419355 3.1409987745098  7.41034677419355 2.80141421568627  C 7.41034677419355 2.45797426470588  7.17257258064516 2.23583088235294  6.81571370967742 2.23583088235294  C 6.45867137096774 2.23583088235294  6.10064112903226 2.45798774509804  6.10064112903226 2.80141421568627  C 6.10103629032258 3.14117401960784  6.45923588709677 3.36903308823529  6.81571370967742 3.36903308823529  Z M 3.48951411290323 2.23581740196078  C 3.13303629032258 2.23581740196078  2.77271975806452 2.45797426470588  2.77271975806452 2.80140073529412  C 2.77271975806452 3.14097181372549  3.13305040322581 3.36901960784314  3.48951411290323 3.36901960784314  C 3.84463709677419 3.36901960784314  4.08242540322581 3.14098529411765  4.08242540322581 2.80140073529412  C 4.08222782258065 2.45796078431373  3.84484879032258 2.23581740196079  3.48951411290323 2.23581740196079  Z M 13.9245524193548 7.00295588235294  C 13.9245524193548 5.20734068627451  12.1807197580645 3.67731617647059  10.0401592741935 3.51811274509804  C 10.0430524193548 3.4958431372549  10.0444072580645 3.47264338235294  10.0391995967742 3.44947058823529  C 9.61008266129032 1.53808578431373  7.45814717741935 0.0969644607843135  5.03335282258064 0.0969644607843135  C 2.29333266129032 0.0969644607843135  0.063931451612902 1.92203431372549  0.063931451612902 4.16525245098039  C 0.063931451612902 5.36876838235294  0.707112903225805 6.45321200980392  1.92607258064516 7.3083137254902  L 1.50118951612903 8.52839705882353  C 1.47382459677419 8.60772916666667  1.49869153225806 8.69514950980392  1.56478225806451 8.75017647058824  C 1.60504637096774 8.7833112745098  1.65573991935484 8.80060661764706  1.70698387096774 8.80060661764706  C 1.7399375 8.80060661764706  1.77327217741935 8.79324632352941  1.80389717741935 8.77870098039216  L 3.39916330645161 8.01618259803922  L 3.59569959677419 8.05429166666667  C 4.08685685483871 8.15073039215686  4.51096370967742 8.23429534313725  5.03335282258064 8.23429534313725  C 5.1871129032258 8.23429534313725  5.61026008064516 8.18054901960784  5.64590927419355 8.13747916666667  C 6.22108064516129 9.5123443627451  7.80651008064516 10.5047708333333  9.67193951612903 10.5047708333333  C 10.1498024193548 10.5047708333333  10.6334516129032 10.3947169117647  11.0675786290323 10.2908909313725  L 12.2973205645161 10.9330428921569  C 12.3298790322581 10.949987745098  12.3657258064516 10.9588039215686  12.4011774193548 10.9588039215686  C 12.4497399193548 10.9588039215686  12.4982883064516 10.9431531862745  12.5372116935484 10.9127953431373  C 12.6056169354839 10.8597904411765  12.6337580645161 10.7725453431373  12.6083125 10.6926605392157  L 12.2942298387097 9.69509803921568  C 13.3470806451613 8.90036151960784  13.9245665322581 7.94954901960784  13.9245665322581 7.00295588235294  Z M 5.44472983870968 7.68045343137255  C 5.30887903225806 7.69168259803921  5.17110887096774 7.69720955882353  5.03429838709677 7.69720955882353  C 4.57300403225806 7.69720955882353  4.18281048387097 7.62101838235294  3.73153629032258 7.53193995098039  L 3.46929032258065 7.48132107843137  C 3.42419959677419 7.47211397058824  3.37661088709677 7.47801838235294  3.33517540322581 7.49842769607843  L 2.18233467741936 8.04966789215686  L 2.48196572580645 7.18995588235294  C 2.51126411290323 7.10583823529412  2.47907258064516 7.01399632352941  2.40335685483871 6.96320220588235  C 1.24511088709677 6.19202941176471  0.65816935483871 5.25262132352941  0.65816935483871 4.17150735294118  C 0.65816935483871 2.22791789215687  2.62109072580645 0.646169117647061  5.03411491935484 0.646169117647061  C 7.16716733870968 0.646169117647061  9.05571370967742 1.88575857843137  9.44551209677419 3.53449142156863  C 7.20896975806452 3.56247671568628  5.39925806451613 5.06434068627451  5.39925806451613 6.90890318627451  C 5.39925806451613 7.17706862745098  5.44185080645161 7.43694362745098  5.51371370967742 7.687625  C 5.49195161290323 7.68247549019608  5.46900403225806 7.67841789215686  5.4447439516129 7.68045343137255  Z M 11.803622983871 9.33785416666667  C 11.7348225806452 9.38736764705882  11.70575 9.47275245098039  11.7304052419355 9.55154534313725  L 11.9252197580645 10.1703357843137  L 11.1257661290323 9.75253799019608  C 11.0953245967742 9.73652328431372  11.0610161290323 9.72823284313725  11.0269193548387 9.72823284313725  C 11.0101532258064 9.72823284313725  10.9932036290323 9.73025490196078  10.9766209677419 9.73448774509804  C 10.5478850806452 9.8379362745098  10.1041330645161 9.9446875  9.67212298387097 9.9446875  C 7.66546572580645 9.9446875  6.03301209677419 8.62742401960784  6.03301209677419 7.00850980392157  C 6.03301209677419 5.38958210784314  7.66528225806451 4.07287132352941  9.67212298387097 4.07287132352941  C 11.640435483871 4.07287132352941  13.3037258064516 5.41718995098039  13.3037258064516 7.00850980392157  C 13.3037258064516 7.81558088235294  12.7711330645161 8.64307475490196  11.8036512096774 9.33788112745098  Z M 8.36124596774193 5.52704166666667  C 8.12347177419355 5.52704166666667  7.88569758064516 5.75581740196078  7.88569758064516 5.98257107843137  C 7.88569758064516 6.21098284313725  8.12347177419355 6.43644240196078  8.36124596774193 6.43644240196078  C 8.71848588709677 6.43644240196078  8.95452419354839 6.21098284313725  8.95452419354839 5.98257107843137  C 8.95452419354839 5.75545343137255  8.71848588709677 5.52704166666667  8.36124596774193 5.52704166666667  Z M 10.9739112903226 5.52704166666667  C 10.7395947580645 5.52704166666667  10.5018205645161 5.75581740196078  10.5018205645161 5.98257107843137  C 10.5018205645161 6.21098284313725  10.7395947580645 6.43644240196078  10.9739112903226 6.43644240196078  C 11.3299939516129 6.43644240196078  11.5702802419355 6.21098284313725  11.5702802419355 5.98257107843137  C 11.5702802419355 5.75545343137255  11.3303891129032 5.52704166666667  10.9739112903226 5.52704166666667  Z " fill-rule="nonzero" fill="#1980ff" stroke="none" transform="matrix(1 0 0 1 138 321 )" />
  </g>
</svg>