<?xml version="1.0" encoding="utf-8"?>
<svg version="1.1" xmlns:xlink="http://www.w3.org/1999/xlink" width="32px" height="32px" xmlns="http://www.w3.org/2000/svg">
  <g transform="matrix(1 0 0 1 -23 -376 )">
    <path d="M 30.3176538461538 8.99930769230769  L 23.7491538461538 15.5677692307692  L 30.5916923076923 22.4103076923077  C 31.4547307692308 20.4486923076923  31.9348461538462 18.2805769230769  31.9348461538462 16  C 31.9348461538462 13.4881538461538  31.3528846153846 11.1125384615385  30.3176538461538 8.99930769230769  Z M 0.0651538461538468 16  C 0.0651538461538468 18.2805769230769  0.545269230769232 20.4486923076923  1.40830769230769 22.4103461538461  L 8.21707692307692 15.6015384615385  L 1.65996153846154 9.04438461538462  C 0.638538461538461 11.1462692307692  0.0651538461538468 13.5060769230769  0.0651538461538468 16  Z M 21.7235384615385 15.5677692307692  L 22.7363461538462 14.5549615384615  L 29.5995384615385 7.69176923076923  C 26.7991153846154 3.11757692307692  21.7561923076923 0.0651538461538446  16 0.0651538461538446  C 10.2262692307692 0.0651538461538446  5.16976923076923 3.13592307692308  2.3745 7.73334615384615  L 9.22988461538462 14.5887307692308  L 10.2426923076923 15.6015384615385  L 15.0113461538462 20.3701923076923  C 15.5387307692308 20.8975769230769  16.3937307692308 20.8975769230769  16.9211153846154 20.3701923076923  L 21.7235384615385 15.5677692307692  Z M 16 31.9348461538462  C 21.9820769230769 31.9348461538462  27.1932692307692 28.6378846153846  29.9182307692308 23.7625  L 22.7363461538462 16.5805769230769  L 16.9211153846154 22.3958076923077  C 16.3937307692308 22.9231923076923  15.5387307692308 22.9231923076923  15.0113461538462 22.3958076923077  L 9.22988461538461 16.6143461538462  L 2.08176923076923 23.7625  C 4.80673076923077 28.6378461538461  10.0179230769231 31.9348461538462  16 31.9348461538462  Z " fill-rule="nonzero" fill="#1980ff" stroke="none" transform="matrix(1 0 0 1 23 376 )" />
  </g>
</svg>