<?xml version="1.0" encoding="utf-8"?>
<svg version="1.1" xmlns:xlink="http://www.w3.org/1999/xlink" width="29px" height="30px" xmlns="http://www.w3.org/2000/svg">
  <g transform="matrix(1 0 0 1 -13 -12 )">
    <path d="M 19.0187780552455 10.9801180768694  C 19.0187780552455 11.536260257394  18.5706246686663 11.9844136125837  18.0144824881417 11.9844136125837  L 9.98011807686942 11.9844136125837  C 9.42397592773438 11.9844136125837  8.97582250976564 11.5362602260045  8.97582250976564 10.9801180454799  C 8.97582250976564 10.4239758649553  9.42397589634487 9.97582247837613  9.98011807686942 9.97582247837613  L 18.0144824881417 9.97582250976564  C 18.5706246372768 9.97582250976564  19.0187780552455 10.4239758963448  19.0187780552455 10.9801180768694  Z M 17.1127762799944 14.9973002825055  C 17.1127762799944 15.5534424630301  16.6646228934152 16.0015958496094  16.1084807128906 16.0015958496094  L 9.98011807686942 16.0015958496094  C 9.42397592773438 16.0015958496094  8.97582250976564 15.5534424630301  8.97582250976564 14.9973002825055  C 8.97582250976564 14.441158101981  9.42937533133372 13.9930047154018  9.98011807686942 13.9930047154018  L 16.1084807128906 13.9930047154018  C 16.6646228620257 13.9930047154018  17.1127762799944 14.441158101981  17.1127762799944 14.9973002825055  Z M 14.3104677629743 25.0348563929966  C 21.9506731375558 24.9214681640625  28.1330301548549 19.5706246686663  28.1330301548549 12.9887091796875  C 28.1330301548549 6.34200043945316  21.826486038644 0.937162531389504  14.0728924037388 0.937162531389504  C 6.3192987688337 0.937162531389504  0.00735524902344764 6.34200043945316  0.00735524902344764 12.9887091796875  C 0.00735524902344764 16.6441290213448  1.98354971051899 20.0835713065011  5.4337908970424 22.4269275983538  C 5.89274315359933 22.7400950160435  6.51907802036831 22.62130738351  6.8268460344587 22.1623551269531  C 7.14001345214842 21.7034028703962  7.02122581961495 21.0770680036272  6.56227356305803 20.7692999895369  C 3.67357399204798 18.8093038330078  2.01594638323104 15.9745986432757  2.01594638323104 12.9941086146763  C 2.01594638323104 7.45428476911275  7.42078429129464 2.95115306919638  14.067493031529 2.95115306919638  C 20.7142017717634 2.95115306919638  26.119039679827 7.45968417271206  26.119039679827 12.9941086146763  C 26.119039679827 18.5285330566406  20.7142017717634 23.0370641601562  14.067493031529 23.0370641601562  C 14.0026997802734 23.0370641601562  13.9541048339844 23.0586619001116  13.8947109863281 23.0748602364677  C 13.4195603934152 22.9884692138672  12.9390103655134 23.2368433803014  12.7716277866909 23.7065945382254  C 12.5772480015346 24.2519378173828  11.313779398019 25.1698423618861  9.81813496442521 26.0229536237445  C 10.3634782435826 24.1979434361049  10.1043052071708 23.8037844308036  9.92612372698102 23.5446113630022  C 9.71554563685825 23.2314439453125  9.36458214285716 23.0424635951451  8.98662144252233 23.0424635951451  C 8.43047929338729 23.0424635951451  7.98232587541852 23.4906169817243  7.98232587541852 24.0467591622489  C 7.98232587541852 24.2303400774274  8.03092082170758 24.39772265625  8.11731184430803 24.548906930106  C 8.01472251674107 25.1212474155971  7.5773680001395 26.460308140346  7.08061966727121 27.6805812325614  C 6.92403595842634 28.0585419328962  7.01582641601561 28.4958964494978  7.31279552873883 28.7820666922433  C 7.50177587890624 28.9656476074218  7.75554948032925 29.0628375  8.00932308175223 29.0628375  C 8.14430905064174 29.0628375  8.28469445452009 29.0358402936663  8.4196803920201 28.9764464773996  C 9.56436133161273 28.4634998081752  13.0523985944475 26.8058722307478  14.3104677629743 25.0348563929966  Z " fill-rule="nonzero" fill="#ffffff" stroke="none" transform="matrix(1 0 0 1 13 12 )" />
  </g>
</svg>