<?xml version="1.0" encoding="utf-8"?>
<svg version="1.1" xmlns:xlink="http://www.w3.org/1999/xlink" width="23px" height="23px" xmlns="http://www.w3.org/2000/svg">
  <g transform="matrix(1 0 0 1 -100 -1090 )">
    <path d="M 22.7330769870968 11.3965346483872  C 22.7330769870968 5.14804674516131  17.6470516709677 0.0620214290322565  11.3965346483871 0.0620214290322565  C 5.1480467451613 0.0620214290322565  0.0620214290322565 5.14804674516131  0.0620214290322565 11.3965346483872  C 0.0620214290322565 17.6470516709678  5.1480467451613 22.7330769870966  11.3965346483871 22.7330769870966  C 17.6470516709677 22.7330769870966  22.7330769870968 17.6470516709678  22.7330769870968 11.3965346483872  Z M 16.8375883354839 6.33282497096752  C 17.0749495967742 6.49309475806444  17.1378403516129 6.81160521290303  16.9755419645161 7.04693787419342  L 11.047593116129 15.7927923387097  L 6.40991696451613 11.4898564806451  C 6.20501538064515 11.2950984161291  6.18878554193549 10.9705016419355  6.38354360645161 10.7595137387095  C 6.5742439516129 10.5525830354838  6.90492704516129 10.542439516129  7.10982862903225 10.7331403806452  L 10.8650076903226 14.2144407838709  L 16.1234754322581 6.47280771935471  C 16.2817161 6.23544593870952  16.6063128741935 6.17255570322573  16.8375883354839 6.33282497096752  Z " fill-rule="nonzero" fill="#3091f2" stroke="none" transform="matrix(1 0 0 1 100 1090 )" />
  </g>
</svg>