<?xml version="1.0" encoding="utf-8"?>
<svg version="1.1" xmlns:xlink="http://www.w3.org/1999/xlink" width="23px" height="23px" xmlns="http://www.w3.org/2000/svg">
  <g transform="matrix(1 0 0 1 -100 -1127 )">
    <path d="M 22.9807001037037 11.8241028814816  C 22.9807001037037 5.67479732592574  17.9754053481481 0.669502570370241  11.8241028814815 0.669502570370241  C 5.67479732592594 0.669502570370241  0.669502570370369 5.67479732592574  0.669502570370369 11.8241028814816  C 0.669502570370369 17.9754053481481  5.67479732592594 22.9807001037038  11.8241028814815 22.9807001037038  C 17.9754053481481 22.9807001037038  22.9807001037037 17.9754053481481  22.9807001037037 11.8241028814816  Z M 17.178790637037 6.84076954814827  C 17.4123842592593 6.99849537037039  17.4742767481482 7.31195010370379  17.3145545259259 7.54354732592583  L 11.4807001037037 16.1505787037036  L 6.91663785925925 11.9159434148148  C 6.71498868148147 11.7242767481482  6.69901645925927 11.4048323037036  6.89068312592593 11.1971934148148  C 7.07835648148148 10.9935473259259  7.40379063703705 10.9835648148148  7.60543981481482 11.1712386814813  L 11.3010128592593 14.5972803481479  L 16.4760128592593 6.9785303481483  C 16.6317417703704 6.74493621481474  16.9511862148148 6.68304423703694  17.178790637037 6.84076954814827  Z " fill-rule="nonzero" fill="#3091f2" stroke="none" transform="matrix(1 0 0 1 100 1127 )" />
  </g>
</svg>