<?xml version="1.0" encoding="utf-8"?>
<svg version="1.1" xmlns:xlink="http://www.w3.org/1999/xlink" width="23px" height="23px" xmlns="http://www.w3.org/2000/svg">
  <g transform="matrix(1 0 0 1 -100 -1164 )">
    <path d="M 22.8147517713513 11.5526191700001  C 22.8147517713513 5.34514450783786  17.762109632973 0.292502369459498  11.55261917 0.292502369459498  C 5.34514450783784 0.292502369459498  0.292502369459456 5.34514450783786  0.292502369459456 11.5526191700001  C 0.292502369459456 17.7621096329731  5.34514450783784 22.8147517713514  11.55261917 22.8147517713514  C 17.762109632973 22.8147517713514  22.8147517713513 17.7621096329731  22.8147517713513 11.5526191700001  Z M 16.9579593772973 6.52214619702704  C 17.1937626689189 6.68136402027017  17.2562406272973 6.99778386594585  17.0950075191892 7.23157187270272  L 11.2059679875676 15.9200211148648  L 6.59873218135134 11.645328465135  C 6.39517551135134 11.4518487354055  6.37905220054054 11.129382519189  6.57253193027027 10.9197794786485  C 6.76198057432433 10.7142070078378  7.09049316108108 10.7041300675678  7.29404983108107 10.8935792275674  L 11.0245809989189 14.3520293964864  L 16.2485337016216 6.66121013972975  C 16.4057357240541 6.42540633216208  16.7282019402703 6.3629288897298  16.9579593772973 6.52214619702704  Z " fill-rule="nonzero" fill="#3091f2" stroke="none" transform="matrix(1 0 0 1 100 1164 )" />
  </g>
</svg>