<?xml version="1.0" encoding="utf-8"?>
<svg version="1.1" xmlns:xlink="http://www.w3.org/1999/xlink" width="24px" height="24px" xmlns="http://www.w3.org/2000/svg">
  <g transform="matrix(1 0 0 1 -100 -1200 )">
    <path d="M 23.2846466086957 11.896059652174  C 23.2846466086957 5.61888573913052  18.175272 0.509511130434703  11.8960596521739 0.509511130434703  C 5.61888573913043 0.509511130434703  0.509511130434788 5.61888573913052  0.509511130434788 11.896059652174  C 0.509511130434788 18.175272  5.61888573913043 23.2846466086958  11.8960596521739 23.2846466086958  C 18.175272 23.2846466086958  23.2846466086957 18.175272  23.2846466086957 11.896059652174  Z M 17.3620925217391 6.80910313043478  C 17.6005434782609 6.97010869565224  17.6637229565217 7.29008139130428  17.5006794782609 7.52649443478253  L 11.545516173913 16.3125  L 6.88654904347825 11.9898099130435  C 6.6807067826087 11.7941577391305  6.6644024347826 11.4680707826087  6.86005460869565 11.2561142608695  C 7.05163043478261 11.0482335652173  7.38383165217391 11.0380434782608  7.58967391304348 11.2296198260869  L 11.3620925217391 14.7269024347827  L 16.6447012173913 6.94972852173919  C 16.8036683478261 6.71127704347828  17.1297553043478 6.64809808695645  17.3620925217391 6.80910313043478  Z " fill-rule="nonzero" fill="#3091f2" stroke="none" transform="matrix(1 0 0 1 100 1200 )" />
  </g>
</svg>