<?xml version="1.0" encoding="utf-8"?>
<svg version="1.1" xmlns:xlink="http://www.w3.org/1999/xlink" width="60px" height="60px" xmlns="http://www.w3.org/2000/svg">
  <defs>
    <path d="M 0 0  L 50 0  L 50 50  L 0 50  Z " fill-rule="evenodd" fill="black" id="path46" />
    <clipPath id="clip47">
      <use xlink:href="#path46" />
    </clipPath>
    <filter x="-50.00%" y="-50.00%" width="200.00%" height="200.00%" filterUnits="objectBoundingBox" id="filter48">
      <feColorMatrix type="matrix" values="1 0 0 0 0  0 1 0 0 0  0 0 1 0 0  0 0 0 1 0  " in="SourceGraphic" />
    </filter>
  </defs>
  <g transform="matrix(1 0 0 1 -131 -5803 )">
    <g transform="matrix(1.2 0 0 1.2 131 5803 )" clip-path="url(#clip47)" filter="url(#filter48)">
      <g id="surface1">
        <path style=" stroke:none;fill-rule:nonzero;fill:#3091F2;fill-opacity:1;" d="M 5.953125 3.96875 C 4.859375 3.96875 3.96875 4.859375 3.96875 5.953125 L 3.96875 43.652344 C 3.96875 44.742188 4.859375 45.636719 5.953125 45.636719 L 43.652344 45.636719 C 44.742188 45.636719 45.636719 44.742188 45.636719 43.652344 L 45.636719 5.953125 C 45.636719 4.859375 44.742188 3.96875 43.652344 3.96875 Z M 18.429688 13.890625 C 20.40625 13.890625 22.085938 14.367188 23.203125 15.445313 C 24.214844 16.457031 24.75 18.015625 24.75 19.890625 C 24.75 21.855469 24.273438 23.1875 23.453125 24.265625 C 22.3125 25.855469 20.308594 26.644531 18.402344 26.644531 C 17.996094 26.644531 17.679688 26.644531 17.324219 26.613281 L 17.324219 35.714844 L 14.882813 35.714844 L 14.882813 14.308594 C 15.863281 14.046875 17.003906 13.890625 18.429688 13.890625 Z M 18.828125 15.515625 C 18.257813 15.515625 17.777344 15.574219 17.457031 15.675781 L 17.457031 24.214844 C 17.75 24.246094 18.035156 24.273438 18.441406 24.273438 C 20.820313 24.273438 22.441406 22.691406 22.441406 19.671875 C 22.441406 17.480469 21.558594 15.515625 18.828125 15.515625 Z M 31.460938 19.839844 C 32.71875 19.839844 33.628906 20.230469 34.296875 20.636719 L 33.632813 22.492188 C 33.003906 22.074219 32.351563 21.785156 31.496094 21.785156 C 30.148438 21.785156 29.453125 22.734375 29.453125 23.757813 C 29.453125 24.78125 29.851563 25.386719 31.429688 26.410156 C 33.273438 27.558594 34.722656 28.988281 34.722656 31.121094 C 34.722656 34.214844 32.546875 35.714844 29.914063 35.714844 C 28.761719 35.714844 27.480469 35.367188 26.785156 34.820313 L 27.410156 32.972656 C 27.976563 33.324219 28.960938 33.769531 29.980469 33.769531 C 31.402344 33.769531 32.320313 32.90625 32.320313 31.535156 C 32.320313 30.355469 31.894531 29.535156 30.277344 28.511719 C 28.203125 27.203125 27.085938 25.863281 27.085938 24.121094 C 27.085938 21.597656 28.992188 19.839844 31.460938 19.839844 Z " />
      </g>
    </g>
    <path d="M 132.5 5861.5  L 132.5 5804.5  L 189.5 5804.5  L 189.5 5861.5  L 132.5 5861.5  Z " stroke-width="3" stroke="#ffffff" fill="none" />
  </g>
</svg>