<?xml version="1.0" encoding="UTF-8"?>
<svg xmlns="http://www.w3.org/2000/svg" xmlns:xlink="http://www.w3.org/1999/xlink" width="50pt" height="50pt" viewBox="0 0 50 50" version="1.1">
<g id="surface1">
<path style=" stroke:none;fill-rule:nonzero;fill:#3091F2;fill-opacity:1;" d="M 5.953125 3.96875 C 4.859375 3.96875 3.96875 4.859375 3.96875 5.953125 L 3.96875 43.652344 C 3.96875 44.742188 4.859375 45.636719 5.953125 45.636719 L 43.652344 45.636719 C 44.742188 45.636719 45.636719 44.742188 45.636719 43.652344 L 45.636719 5.953125 C 45.636719 4.859375 44.742188 3.96875 43.652344 3.96875 Z M 12.929688 13.890625 C 15.148438 13.890625 16.765625 14.453125 17.945313 15.503906 C 19.59375 16.933594 20.832031 19.910156 20.832031 24.382813 C 20.832031 29.265625 19.625 31.933594 18.265625 33.433594 C 16.863281 34.976563 14.804688 35.714844 12.363281 35.714844 C 11.382813 35.714844 10.613281 35.652344 9.921875 35.496094 L 9.921875 14.308594 C 10.84375 14.015625 11.695313 13.890625 12.929688 13.890625 Z M 12.820313 15.890625 C 12.441406 15.890625 12.46875 15.960938 12.292969 16.011719 L 12.402344 33.609375 C 12.609375 33.679688 12.429688 33.691406 12.597656 33.679688 C 15.289063 33.558594 17.894531 31.746094 17.894531 24.445313 C 17.894531 19.046875 16.25 15.890625 12.820313 15.890625 Z M 22.570313 19.839844 L 25.113281 19.839844 L 26.578125 27.875 C 26.894531 29.523438 27.269531 31.167969 27.46875 32.757813 C 27.6875 31.167969 28.125 29.394531 28.484375 27.9375 L 30.289063 19.839844 L 32.164063 19.839844 L 33.808594 27.714844 C 34.195313 29.433594 34.59375 31.019531 34.84375 32.738281 C 35.039063 31.121094 35.398438 29.550781 35.746094 27.808594 L 37.242188 19.839844 L 39.683594 19.839844 L 35.785156 35.714844 L 33.78125 35.714844 L 32.003906 28.253906 C 31.617188 26.765625 31.429688 24.890625 31.171875 23.144531 L 31.109375 23.144531 C 30.863281 24.949219 30.542969 26.886719 30.1875 28.351563 L 28.351563 35.714844 L 26.289063 35.714844 Z "/>
</g>
</svg>
