<?xml version="1.0" encoding="utf-8"?>
<svg version="1.1" xmlns:xlink="http://www.w3.org/1999/xlink" width="848px" height="435px" xmlns="http://www.w3.org/2000/svg">
  <g>
    <path d="M 1 386.033095684803  C 1 386.033095684803  1 6  1 6  C 1 3.23857625084603  3.23857625084603 1  6 1  C 6 1  842 1  842 1  C 844.761423749154 1  847 3.23857625084603  847 6  C 847 6  847 386.033095684803  847 386.033095684803  C 847 388.794519433957  844.761423749154 391.033095684803  842 391.033095684803  C 842 391.033095684803  91.4480070227819 391.033095684803  91.4480070227819 391.033095684803  C 91.4480070227819 391.033095684803  58.4312883587322 432.637438983664  58.4312883587322 432.637438983664  C 58.4312883587322 432.637438983664  41.4969084932663 391.033095684803  41.4969084932663 391.033095684803  C 41.4969084932663 391.033095684803  6 391.033095684803  6 391.033095684803  C 3.23857625084603 391.033095684803  1 388.794519433957  1 386.033095684803  Z " fill-rule="nonzero" fill="#000000" stroke="none" />
  </g>
</svg>