<?xml version="1.0" encoding="utf-8"?>
<svg version="1.1" xmlns:xlink="http://www.w3.org/1999/xlink" width="12px" height="13px" xmlns="http://www.w3.org/2000/svg">
  <defs>
    <mask fill="white" id="clip54">
      <path d="M 11.66703125 1.15228515625  C 11.4115234375 0.89681640625  10.9973046875 0.89681640625  10.7418359375 1.152265625  L 6 5.89390625  L 1.2581640625 1.152265625  C 1.00267578125 0.89677734375  0.5884375 0.89677734375  0.33298828125 1.152265625  C 0.0775000000000006 1.40775390625  0.0775000000000006 1.821953125  0.33298828125 2.07740234375  L 5.07482421875 6.8190234375  L 0.33298828125 11.56068359375  C 0.0774999999999997 11.816171875  0.0774999999999997 12.23037109375  0.33298828125 12.4858203125  C 0.588476562499999 12.74130859375  1.00271484375 12.74130859375  1.2581640625 12.4858203125  L 6 7.74419921875  L 10.7418359375 12.4858203125  C 10.99732421875 12.74130859375  11.41154296875 12.74130859375  11.66703125 12.4858203125  C 11.92251953125 12.23033203125  11.92251953125 11.8161328125  11.66703125 11.56068359375  L 6.9251953125 6.81904296875  L 11.66703125 2.077421875  C 11.92251953125 1.82193359375  11.92251953125 1.407734375  11.66703125 1.15228515625  Z " fill-rule="evenodd" />
    </mask>
  </defs>
  <g transform="matrix(1 0 0 1 -354 -14 )">
    <path d="M 11.66703125 1.15228515625  C 11.4115234375 0.89681640625  10.9973046875 0.89681640625  10.7418359375 1.152265625  L 6 5.89390625  L 1.2581640625 1.152265625  C 1.00267578125 0.89677734375  0.5884375 0.89677734375  0.33298828125 1.152265625  C 0.0775000000000006 1.40775390625  0.0775000000000006 1.821953125  0.33298828125 2.07740234375  L 5.07482421875 6.8190234375  L 0.33298828125 11.56068359375  C 0.0774999999999997 11.816171875  0.0774999999999997 12.23037109375  0.33298828125 12.4858203125  C 0.588476562499999 12.74130859375  1.00271484375 12.74130859375  1.2581640625 12.4858203125  L 6 7.74419921875  L 10.7418359375 12.4858203125  C 10.99732421875 12.74130859375  11.41154296875 12.74130859375  11.66703125 12.4858203125  C 11.92251953125 12.23033203125  11.92251953125 11.8161328125  11.66703125 11.56068359375  L 6.9251953125 6.81904296875  L 11.66703125 2.077421875  C 11.92251953125 1.82193359375  11.92251953125 1.407734375  11.66703125 1.15228515625  Z " fill-rule="nonzero" fill="#ffffff" stroke="none" transform="matrix(1 0 0 1 354 14 )" />
    <path d="M 11.66703125 1.15228515625  C 11.4115234375 0.89681640625  10.9973046875 0.89681640625  10.7418359375 1.152265625  L 6 5.89390625  L 1.2581640625 1.152265625  C 1.00267578125 0.89677734375  0.5884375 0.89677734375  0.33298828125 1.152265625  C 0.0775000000000006 1.40775390625  0.0775000000000006 1.821953125  0.33298828125 2.07740234375  L 5.07482421875 6.8190234375  L 0.33298828125 11.56068359375  C 0.0774999999999997 11.816171875  0.0774999999999997 12.23037109375  0.33298828125 12.4858203125  C 0.588476562499999 12.74130859375  1.00271484375 12.74130859375  1.2581640625 12.4858203125  L 6 7.74419921875  L 10.7418359375 12.4858203125  C 10.99732421875 12.74130859375  11.41154296875 12.74130859375  11.66703125 12.4858203125  C 11.92251953125 12.23033203125  11.92251953125 11.8161328125  11.66703125 11.56068359375  L 6.9251953125 6.81904296875  L 11.66703125 2.077421875  C 11.92251953125 1.82193359375  11.92251953125 1.407734375  11.66703125 1.15228515625  Z " stroke-width="2" stroke="#ffffff" fill="none" transform="matrix(1 0 0 1 354 14 )" mask="url(#clip54)" />
  </g>
</svg>