<?xml version="1.0" encoding="utf-8"?>
<svg version="1.1" xmlns:xlink="http://www.w3.org/1999/xlink" width="20px" height="20px" xmlns="http://www.w3.org/2000/svg">
  <g transform="matrix(1 0 0 1 -380 -2755 )">
    <path d="M 390 2758.5  C 393.64 2758.5  396.5 2761.36  396.5 2765  C 396.5 2768.64  393.64 2771.5  390 2771.5  C 386.36 2771.5  383.5 2768.64  383.5 2765  C 383.5 2761.36  386.36 2758.5  390 2758.5  Z " fill-rule="nonzero" fill="#3091f2" stroke="none" />
    <path d="M 390 2757  C 394.48 2757  398 2760.52  398 2765  C 398 2769.48  394.48 2773  390 2773  C 385.52 2773  382 2769.48  382 2765  C 382 2760.52  385.52 2757  390 2757  Z " stroke-width="4" stroke="#3091f2" fill="none" stroke-opacity="0.498039215686275" />
  </g>
</svg>