<?xml version="1.0" encoding="utf-8"?>
<svg version="1.1" xmlns:xlink="http://www.w3.org/1999/xlink" width="24px" height="24px" xmlns="http://www.w3.org/2000/svg">
  <defs>
    <mask fill="white" id="clip16">
      <path d="M 23.31 18.2125  C 23.31 17.7725  23.1375 17.36  22.83 17.05  L 17.69 11.915  L 22.3775 7.23  C 22.7 6.9125  22.885 6.4925  22.9025 6.05  C 22.92 5.5925  22.755 5.165  22.4375 4.85  L 19.1575 1.5675  C 18.855 1.2675  18.4525 1.105  18.02 1.105  C 17.56 1.105  17.105 1.295  16.7725 1.63  L 14.82 3.58  C 14.8175 3.5825  14.815 3.5825  14.815 3.585  L 14.81 3.59  L 12.085 6.3125  L 6.9475 1.1775  C 6.635 0.8675  6.2225 0.6975  5.785 0.6975  C 5.345 0.6975  4.9325 0.8675  4.6225 1.1775  L 1.18 4.6175  C 0.87 4.93  0.7 5.3425  0.7 5.7775  C 0.7 6.2175  0.87 6.63  1.18 6.94  L 6.32 12.0725  L 2.425 15.965  C 2.3225 16.065  2.26 16.2025  2.25 16.3475  L 1.3225 21.9875  C 1.3225 21.9925  1.3225 21.995  1.32 22  L 1.32 22.0075  C 1.32 22.015  1.3175 22.02  1.3175 22.0275  L 1.3175 22.1275  C 1.32 22.165  1.325 22.2  1.335 22.235  C 1.335 22.2375  1.3375 22.2425  1.3375 22.245  C 1.34 22.2575  1.345 22.27  1.3475 22.28  C 1.415 22.4875  1.5925 22.6375  1.81 22.6725  L 1.83 22.6725  C 1.8575 22.675  1.8825 22.6775  1.91 22.6775  C 1.935 22.6775  1.9575 22.675  1.98 22.6725  C 1.9875 22.6725  1.995 22.67  2.0025 22.67  L 2.005 22.67  L 7.71 21.735  C 7.8525 21.71  7.975 21.6375  8.0625 21.535  L 11.925 17.675  L 17.0625 22.81  C 17.375 23.12  17.7875 23.29  18.225 23.29  C 18.665 23.29  19.0775 23.12  19.3875 22.81  L 22.83 19.3725  C 23.14 19.06  23.31 18.6475  23.31 18.2125  Z M 16.0725 4.0025  L 17.61 2.4675  C 17.7225 2.355  17.8725 2.29  18.0175 2.29  C 18.135 2.29  18.24 2.3325  18.315 2.4075  L 21.6 5.69  C 21.68 5.7675  21.72 5.8775  21.715 6.005  C 21.71 6.145  21.6475 6.2825  21.5375 6.3925  L 20 7.9275  L 16.0725 4.0025  Z M 7.1575 11.235  L 2.02 6.1025  C 1.935 6.0175  1.8875 5.9025  1.8875 5.78  C 1.8875 5.6575  1.935 5.5425  2.02 5.4575  L 5.4625 2.0175  C 5.5475 1.9325  5.6625 1.885  5.785 1.885  C 5.9075 1.885  6.0225 1.9325  6.1075 2.0175  L 11.2425 7.155  L 7.1575 11.235  Z M 3.6825 16.385  L 7.565 12.5075  L 7.58 12.4925  L 12.5075 7.5725  C 12.5225 7.5575  12.5375 7.54  12.55 7.525  L 15.2325 4.8425  L 19.16 8.7675  L 16.4325 11.4925  L 16.43 11.495  L 11.505 16.415  L 11.5025 16.4175  L 7.61 20.3075  L 3.6825 16.385  Z M 2.6275 21.365  L 3.2425 17.6225  L 6.3725 20.75  L 2.6275 21.365  Z M 22.1225 18.2075  C 22.1225 18.33  22.075 18.445  21.99 18.53  L 18.55 21.97  C 18.465 22.055  18.35 22.1025  18.2275 22.1025  C 18.105 22.1025  17.99 22.055  17.905 21.97  L 12.765 16.835  L 14.4975 15.105  L 16.85 12.7525  L 21.99 17.885  C 22.075 17.97  22.1225 18.085  22.1225 18.2075  Z M 9.2275 14.98  C 9.34 15.095  9.49 15.1575  9.65 15.1575  C 9.805 15.1575  9.9525 15.095  10.07 14.9825  L 14.87 10.185  C 14.98 10.075  15.045 9.9225  15.045 9.765  C 15.045 9.6075  14.9825 9.4575  14.87 9.345  C 14.76 9.235  14.6075 9.17  14.45 9.17  C 14.29 9.17  14.1425 9.2325  14.03 9.345  L 9.23 14.1425  C 9.12 14.2525  9.055 14.405  9.055 14.5625  C 9.055 14.72  9.1175 14.8725  9.2275 14.98  Z " fill-rule="evenodd" />
    </mask>
  </defs>
  <g transform="matrix(1 0 0 1 -27 -432 )">
    <path d="M 23.31 18.2125  C 23.31 17.7725  23.1375 17.36  22.83 17.05  L 17.69 11.915  L 22.3775 7.23  C 22.7 6.9125  22.885 6.4925  22.9025 6.05  C 22.92 5.5925  22.755 5.165  22.4375 4.85  L 19.1575 1.5675  C 18.855 1.2675  18.4525 1.105  18.02 1.105  C 17.56 1.105  17.105 1.295  16.7725 1.63  L 14.82 3.58  C 14.8175 3.5825  14.815 3.5825  14.815 3.585  L 14.81 3.59  L 12.085 6.3125  L 6.9475 1.1775  C 6.635 0.8675  6.2225 0.6975  5.785 0.6975  C 5.345 0.6975  4.9325 0.8675  4.6225 1.1775  L 1.18 4.6175  C 0.87 4.93  0.7 5.3425  0.7 5.7775  C 0.7 6.2175  0.87 6.63  1.18 6.94  L 6.32 12.0725  L 2.425 15.965  C 2.3225 16.065  2.26 16.2025  2.25 16.3475  L 1.3225 21.9875  C 1.3225 21.9925  1.3225 21.995  1.32 22  L 1.32 22.0075  C 1.32 22.015  1.3175 22.02  1.3175 22.0275  L 1.3175 22.1275  C 1.32 22.165  1.325 22.2  1.335 22.235  C 1.335 22.2375  1.3375 22.2425  1.3375 22.245  C 1.34 22.2575  1.345 22.27  1.3475 22.28  C 1.415 22.4875  1.5925 22.6375  1.81 22.6725  L 1.83 22.6725  C 1.8575 22.675  1.8825 22.6775  1.91 22.6775  C 1.935 22.6775  1.9575 22.675  1.98 22.6725  C 1.9875 22.6725  1.995 22.67  2.0025 22.67  L 2.005 22.67  L 7.71 21.735  C 7.8525 21.71  7.975 21.6375  8.0625 21.535  L 11.925 17.675  L 17.0625 22.81  C 17.375 23.12  17.7875 23.29  18.225 23.29  C 18.665 23.29  19.0775 23.12  19.3875 22.81  L 22.83 19.3725  C 23.14 19.06  23.31 18.6475  23.31 18.2125  Z M 16.0725 4.0025  L 17.61 2.4675  C 17.7225 2.355  17.8725 2.29  18.0175 2.29  C 18.135 2.29  18.24 2.3325  18.315 2.4075  L 21.6 5.69  C 21.68 5.7675  21.72 5.8775  21.715 6.005  C 21.71 6.145  21.6475 6.2825  21.5375 6.3925  L 20 7.9275  L 16.0725 4.0025  Z M 7.1575 11.235  L 2.02 6.1025  C 1.935 6.0175  1.8875 5.9025  1.8875 5.78  C 1.8875 5.6575  1.935 5.5425  2.02 5.4575  L 5.4625 2.0175  C 5.5475 1.9325  5.6625 1.885  5.785 1.885  C 5.9075 1.885  6.0225 1.9325  6.1075 2.0175  L 11.2425 7.155  L 7.1575 11.235  Z M 3.6825 16.385  L 7.565 12.5075  L 7.58 12.4925  L 12.5075 7.5725  C 12.5225 7.5575  12.5375 7.54  12.55 7.525  L 15.2325 4.8425  L 19.16 8.7675  L 16.4325 11.4925  L 16.43 11.495  L 11.505 16.415  L 11.5025 16.4175  L 7.61 20.3075  L 3.6825 16.385  Z M 2.6275 21.365  L 3.2425 17.6225  L 6.3725 20.75  L 2.6275 21.365  Z M 22.1225 18.2075  C 22.1225 18.33  22.075 18.445  21.99 18.53  L 18.55 21.97  C 18.465 22.055  18.35 22.1025  18.2275 22.1025  C 18.105 22.1025  17.99 22.055  17.905 21.97  L 12.765 16.835  L 14.4975 15.105  L 16.85 12.7525  L 21.99 17.885  C 22.075 17.97  22.1225 18.085  22.1225 18.2075  Z M 9.2275 14.98  C 9.34 15.095  9.49 15.1575  9.65 15.1575  C 9.805 15.1575  9.9525 15.095  10.07 14.9825  L 14.87 10.185  C 14.98 10.075  15.045 9.9225  15.045 9.765  C 15.045 9.6075  14.9825 9.4575  14.87 9.345  C 14.76 9.235  14.6075 9.17  14.45 9.17  C 14.29 9.17  14.1425 9.2325  14.03 9.345  L 9.23 14.1425  C 9.12 14.2525  9.055 14.405  9.055 14.5625  C 9.055 14.72  9.1175 14.8725  9.2275 14.98  Z " fill-rule="nonzero" fill="#ffffff" stroke="none" transform="matrix(1 0 0 1 27 432 )" />
    <path d="M 23.31 18.2125  C 23.31 17.7725  23.1375 17.36  22.83 17.05  L 17.69 11.915  L 22.3775 7.23  C 22.7 6.9125  22.885 6.4925  22.9025 6.05  C 22.92 5.5925  22.755 5.165  22.4375 4.85  L 19.1575 1.5675  C 18.855 1.2675  18.4525 1.105  18.02 1.105  C 17.56 1.105  17.105 1.295  16.7725 1.63  L 14.82 3.58  C 14.8175 3.5825  14.815 3.5825  14.815 3.585  L 14.81 3.59  L 12.085 6.3125  L 6.9475 1.1775  C 6.635 0.8675  6.2225 0.6975  5.785 0.6975  C 5.345 0.6975  4.9325 0.8675  4.6225 1.1775  L 1.18 4.6175  C 0.87 4.93  0.7 5.3425  0.7 5.7775  C 0.7 6.2175  0.87 6.63  1.18 6.94  L 6.32 12.0725  L 2.425 15.965  C 2.3225 16.065  2.26 16.2025  2.25 16.3475  L 1.3225 21.9875  C 1.3225 21.9925  1.3225 21.995  1.32 22  L 1.32 22.0075  C 1.32 22.015  1.3175 22.02  1.3175 22.0275  L 1.3175 22.1275  C 1.32 22.165  1.325 22.2  1.335 22.235  C 1.335 22.2375  1.3375 22.2425  1.3375 22.245  C 1.34 22.2575  1.345 22.27  1.3475 22.28  C 1.415 22.4875  1.5925 22.6375  1.81 22.6725  L 1.83 22.6725  C 1.8575 22.675  1.8825 22.6775  1.91 22.6775  C 1.935 22.6775  1.9575 22.675  1.98 22.6725  C 1.9875 22.6725  1.995 22.67  2.0025 22.67  L 2.005 22.67  L 7.71 21.735  C 7.8525 21.71  7.975 21.6375  8.0625 21.535  L 11.925 17.675  L 17.0625 22.81  C 17.375 23.12  17.7875 23.29  18.225 23.29  C 18.665 23.29  19.0775 23.12  19.3875 22.81  L 22.83 19.3725  C 23.14 19.06  23.31 18.6475  23.31 18.2125  Z " stroke-width="2" stroke="#797979" fill="none" transform="matrix(1 0 0 1 27 432 )" mask="url(#clip16)" />
    <path d="M 16.0725 4.0025  L 17.61 2.4675  C 17.7225 2.355  17.8725 2.29  18.0175 2.29  C 18.135 2.29  18.24 2.3325  18.315 2.4075  L 21.6 5.69  C 21.68 5.7675  21.72 5.8775  21.715 6.005  C 21.71 6.145  21.6475 6.2825  21.5375 6.3925  L 20 7.9275  L 16.0725 4.0025  Z " stroke-width="2" stroke="#797979" fill="none" transform="matrix(1 0 0 1 27 432 )" mask="url(#clip16)" />
    <path d="M 7.1575 11.235  L 2.02 6.1025  C 1.935 6.0175  1.8875 5.9025  1.8875 5.78  C 1.8875 5.6575  1.935 5.5425  2.02 5.4575  L 5.4625 2.0175  C 5.5475 1.9325  5.6625 1.885  5.785 1.885  C 5.9075 1.885  6.0225 1.9325  6.1075 2.0175  L 11.2425 7.155  L 7.1575 11.235  Z " stroke-width="2" stroke="#797979" fill="none" transform="matrix(1 0 0 1 27 432 )" mask="url(#clip16)" />
    <path d="M 3.6825 16.385  L 7.565 12.5075  L 7.58 12.4925  L 12.5075 7.5725  C 12.5225 7.5575  12.5375 7.54  12.55 7.525  L 15.2325 4.8425  L 19.16 8.7675  L 16.4325 11.4925  L 16.43 11.495  L 11.505 16.415  L 11.5025 16.4175  L 7.61 20.3075  L 3.6825 16.385  Z " stroke-width="2" stroke="#797979" fill="none" transform="matrix(1 0 0 1 27 432 )" mask="url(#clip16)" />
    <path d="M 2.6275 21.365  L 3.2425 17.6225  L 6.3725 20.75  L 2.6275 21.365  Z " stroke-width="2" stroke="#797979" fill="none" transform="matrix(1 0 0 1 27 432 )" mask="url(#clip16)" />
    <path d="M 22.1225 18.2075  C 22.1225 18.33  22.075 18.445  21.99 18.53  L 18.55 21.97  C 18.465 22.055  18.35 22.1025  18.2275 22.1025  C 18.105 22.1025  17.99 22.055  17.905 21.97  L 12.765 16.835  L 14.4975 15.105  L 16.85 12.7525  L 21.99 17.885  C 22.075 17.97  22.1225 18.085  22.1225 18.2075  Z " stroke-width="2" stroke="#797979" fill="none" transform="matrix(1 0 0 1 27 432 )" mask="url(#clip16)" />
    <path d="M 9.2275 14.98  C 9.34 15.095  9.49 15.1575  9.65 15.1575  C 9.805 15.1575  9.9525 15.095  10.07 14.9825  L 14.87 10.185  C 14.98 10.075  15.045 9.9225  15.045 9.765  C 15.045 9.6075  14.9825 9.4575  14.87 9.345  C 14.76 9.235  14.6075 9.17  14.45 9.17  C 14.29 9.17  14.1425 9.2325  14.03 9.345  L 9.23 14.1425  C 9.12 14.2525  9.055 14.405  9.055 14.5625  C 9.055 14.72  9.1175 14.8725  9.2275 14.98  Z " stroke-width="2" stroke="#797979" fill="none" transform="matrix(1 0 0 1 27 432 )" mask="url(#clip16)" />
  </g>
</svg>