<?xml version="1.0" encoding="utf-8"?>
<svg version="1.1" xmlns:xlink="http://www.w3.org/1999/xlink" width="30px" height="30px" xmlns="http://www.w3.org/2000/svg">
  <g transform="matrix(1 0 0 1 -220 -46 )">
    <path d="M 5.45454545454547 21.8181818181818  L 8.18181818181819 21.8181818181818  L 8.18181818181819 24.5454545454545  L 5.45454545454547 24.5454545454545  L 5.45454545454547 21.8181818181818  Z M 5.45454545454547 5.45454545454545  L 8.18181818181819 5.45454545454545  L 8.18181818181819 8.18181818181818  L 5.45454545454547 8.18181818181818  L 5.45454545454547 5.45454545454545  Z M 21.8181818181818 5.45454545454545  L 24.5454545454546 5.45454545454545  L 24.5454545454546 8.18181818181818  L 21.8181818181818 8.18181818181818  L 21.8181818181818 5.45454545454545  Z M 2.72727272727272 19.0909090909091  L 2.72727272727272 27.2514204545455  L 10.9090909090909 27.2514204545455  L 10.9090909090909 19.0909090909091  L 2.72727272727272 19.0909090909091  Z M 2.72727272727272 2.72727272727273  L 2.72727272727272 10.9090909090909  L 10.9090909090909 10.9090909090909  L 10.9090909090909 2.72727272727273  L 2.72727272727272 2.72727272727273  Z M 19.0909090909091 2.72727272727273  L 19.0909090909091 10.9090909090909  L 27.2727272727273 10.9090909090909  L 27.2727272727273 2.72727272727273  L 19.0909090909091 2.72727272727273  Z M 0 16  L 14 16  L 14 30  L 0 30  L 0 16  Z M 21.8181818181818 27.2727272727273  L 24.5454545454546 27.2727272727273  L 24.5454545454546 30  L 21.8181818181818 30  L 21.8181818181818 27.2727272727273  Z M 27.2727272727273 27.2727272727273  L 30 27.2727272727273  L 30 30  L 27.2727272727273 30  L 27.2727272727273 27.2727272727273  Z M 27.2727272727273 16.3636363636364  L 30 16.3636363636364  L 30 24.5454545454545  L 21.8181818181818 24.5454545454545  L 21.8181818181818 21.8181818181818  L 19.0909090909091 21.8181818181818  L 19.0909090909091 30  L 16 30  L 16 16.3636363636364  L 24.5454545454546 16.3636363636364  L 24.5454545454546 19.0909090909091  L 27.2727272727273 19.0909090909091  L 27.2727272727273 16.3636363636364  Z M 0 0  L 14 0  L 14 14  L 0 14  L 0 0  Z M 16 0  L 30 0  L 30 14  L 16 14  L 16 0  Z " fill-rule="nonzero" fill="#ffffff" stroke="none" transform="matrix(1 0 0 1 220 46 )" />
  </g>
</svg>