<?xml version="1.0" encoding="utf-8"?>
<svg version="1.1" xmlns:xlink="http://www.w3.org/1999/xlink" width="15px" height="15px" xmlns="http://www.w3.org/2000/svg">
  <g transform="matrix(1 0 0 1 -1165 -23 )">
    <path d="M 14.6464646464647 11.2121212121212  C 14.882154882155 11.4478114478115  15 11.7340067340068  15 12.0707070707071  C 15 12.4074074074074  14.882154882155 12.6936026936027  14.6464646464647 12.929292929293  L 12.9292929292928 14.6464646464646  C 12.6936026936028 14.8821548821549  12.4074074074074 15  12.0707070707072 15  C 11.7340067340067 15  11.4478114478115 14.8821548821549  11.2121212121212 14.6464646464646  L 7.5 10.9343434343434  L 3.78787878787875 14.6464646464646  C 3.55218855218845 14.8821548821549  3.2659932659933 15  2.92929292929284 15  C 2.59259259259238 15  2.30639730639723 14.8821548821549  2.07070707070716 14.6464646464646  L 0.353535353535335 12.929292929293  C 0.117845117845263 12.6936026936027  0 12.4074074074074  0 12.0707070707071  C 0 11.7340067340068  0.117845117845263 11.4478114478115  0.353535353535335 11.2121212121212  L 4.06565656565658 7.5  L 0.353535353535335 3.78787878787881  C 0.117845117845263 3.55218855218851  0 3.26599326599325  0 2.92929292929293  C 0 2.59259259259261  0.117845117845263 2.30639730639734  0.353535353535335 2.07070707070704  L 2.07070707070716 0.353535353535364  C 2.30639730639723 0.11784511784515  2.59259259259238 0  2.92929292929284 0  C 3.2659932659933 0  3.55218855218845 0.11784511784515  3.78787878787875 0.353535353535364  L 7.5 4.06565656565655  L 11.2121212121212 0.353535353535364  C 11.4478114478115 0.11784511784515  11.7340067340067 0  12.0707070707072 0  C 12.4074074074074 0  12.6936026936028 0.11784511784515  12.9292929292928 0.353535353535364  L 14.6464646464647 2.07070707070704  C 14.882154882155 2.30639730639734  15 2.59259259259261  15 2.92929292929293  C 15 3.26599326599325  14.882154882155 3.55218855218851  14.6464646464647 3.78787878787881  L 10.9343434343434 7.5  L 14.6464646464647 11.2121212121212  Z " fill-rule="nonzero" fill="#ffffff" stroke="none" transform="matrix(1 0 0 1 1165 23 )" />
  </g>
</svg>