<?xml version="1.0" encoding="utf-8"?>
<svg version="1.1" xmlns:xlink="http://www.w3.org/1999/xlink" width="26px" height="26px" xmlns="http://www.w3.org/2000/svg">
  <g transform="matrix(1 0 0 1 -14 -15 )">
    <path d="M 25.2836818181818 20.5149545454546  C 25.2837272727273 20.0585909090909  25.1012272727273 19.6239545454545  24.7795454545455 19.3022727272727  L 20.8675909090909 15.3903181818182  C 20.1938636363636 14.734  19.1159090909091 14.734  18.4421818181818 15.3903181818182  L 16.3297272727273 17.5027727272727  C 16.1515 17.6375  15.9255 17.6983636363636  15.7038181818182 17.6766363636364  C 14.6432272727273 17.6766363636364  12.6915909090909 16.8681363636364  10.9225454545455 15.0686818181818  C 9.93154545454546 14.095  9.14913636363637 12.9301363636364  8.62754545454546 11.6435454545455  C 8.232 10.5829545454545  8.27981818181818 9.8745  8.51018181818182 9.64845454545455  L 10.6226363636364 7.536  C 11.2920454545455 6.86663636363637  11.2920454545455 5.78431818181819  10.627 5.11495454545455  L 10.6226363636364 5.11063636363637  L 6.71068181818182 1.19868181818182  C 6.03695454545455 0.542363636363641  4.959 0.542363636363641  4.28531818181818 1.19868181818182  L 2.02072727272727 3.4589090909091  C -0.587227272727271 6.06686363636364  1.84686363636364 12.6475909090909  7.60177272727273 18.4025  C 11.6006363636364 22.4318181818182  16.3297272727273 25.0397727272727  19.6330909090909 25.0397727272727  C 20.7023636363636 25.1006363636364  21.7498636363636 24.7225  22.5366363636364 23.9922272727273  L 24.7968636363636 21.7276818181818  C 25.1141363636364 21.4060454545455  25.2880454545455 20.9670454545455  25.2836818181818 20.5149545454546  Z " fill-rule="nonzero" fill="#ffffff" stroke="none" transform="matrix(1 0 0 1 14 15 )" />
  </g>
</svg>