<?xml version="1.0" encoding="utf-8"?>
<svg version="1.1" xmlns:xlink="http://www.w3.org/1999/xlink" width="32px" height="32px" xmlns="http://www.w3.org/2000/svg">
  <g transform="matrix(1 0 0 1 -23 -280 )">
    <path d="M 9.1311375 10.7985525  C 9.131134 11.39007  9.7204395 11.7871555  10.3042535 11.7871555  C 10.8883125 11.7871555  11.2802705 11.39007  11.2802705 10.7985525  C 11.2802705 10.20427  10.888309 9.812466  10.3042535 9.812466  C 9.7204395 9.812466  9.1311375 10.20427  9.1311375 10.7985525  Z M 16.73844 10.798514  C 16.73844 10.20427  16.34896 9.8124275  15.760148 9.8124275  C 15.176089 9.8124275  14.5895135 10.2042315  14.5895135 10.798514  C 14.5895135 11.3900665  15.176089 11.787117  15.760148 11.787117  C 16.3489635 11.787117  16.73844 11.3900315  16.73844 10.798514  Z M 21.812341 16.333337  C 21.812376 16.7302825  22.199336 17.1222615  22.583531 17.1222615  C 23.1701065 17.1222615  23.561788 16.7302825  23.561788 16.333337  C 23.561788 15.938908  23.1701065 15.5418225  22.583531 15.5418225  C 22.199336 15.5418225  21.812341 15.938908  21.812341 16.333337  Z M 17.517113 16.333337  C 17.517113 16.7302825  17.9090395 17.1222615  18.295786 17.1222615  C 18.887328 17.1222615  19.271523 16.7302825  19.271523 16.333337  C 19.271523 15.938908  18.887328 15.5418225  18.295786 15.5418225  C 17.909036 15.5418225  17.517113 15.938908  17.517113 16.333337  Z M 16.054554 0.561168  C 7.5663015 0.561168  0.6863935 7.4406525  0.6863935 15.9286635  C 0.6863935 24.4166745  7.5663015 31.296264  16.054554 31.296264  C 24.5428065 31.296264  31.4227145 24.4166745  31.4227145 15.9286635  C 31.4227145 7.4406525  24.5428065 0.561168  16.054554 0.561168  Z M 20.7032995 11.999777  C 20.4576555 11.9716195  20.206513 11.9536085  19.9528925 11.9536085  C 16.2491715 11.9536085  13.3241235 14.755593  13.3241235 18.205655  C 13.3241235 18.781958  13.4139125 19.3352135  13.5650145 19.8627265  C 13.3241235 19.8832225  13.0832675 19.8934705  12.8376165 19.8934705  C 11.864081 19.8934705  11.0804415 19.693757  10.107151 19.496525  L 7.381687 20.882182  L 8.16036 18.505297  C 6.2085675 17.122265  5.040733 15.3421125  5.040733 13.1727075  C 5.040733 9.4128605  8.5523565 6.4520845  12.8376165 6.4520845  C 16.6719085 6.4520845  20.029945 8.8186165  20.7032995 11.999777  Z M 20.4471275 12.378778  C 23.9484995 12.378813  27.06841 14.952825  27.06841 18.1133495  C 27.06841 19.893467  25.903057 21.4712495  24.3379445 22.659531  L 24.92452 24.6368805  L 22.7858765 23.4510455  C 22.0044385 23.6482775  21.2235255 23.8454745  20.4471275 23.8454745  C 16.73844 23.8454745  13.813357 21.2765025  13.813357 18.1133145  C 13.813357 14.9527865  16.73844 12.378778  20.4471275 12.378778  Z " fill-rule="nonzero" fill="#1980ff" stroke="none" transform="matrix(1 0 0 1 23 280 )" />
  </g>
</svg>